####
#
# OBJ File Generated by Meshlab
#
####
# Object wheel3.obj
#
# Vertices: 138
# Faces: 274
#
####
mtllib ./wheel3.obj.mtl

vn 0.684017 0.712719 0.155408
v 0.838447 2.587949 -0.530675
vn 0.661653 0.749528 -0.020584
v 0.838447 2.604967 -0.644817
vn -0.677173 0.735612 -0.017633
v 0.550947 2.599459 -0.645623
vn -0.698772 0.700477 0.145088
v 0.550947 2.582441 -0.525474
vn 0.667730 0.671208 0.321895
v 0.838447 2.553911 -0.414530
vn -0.668747 0.667121 0.328218
v 0.550947 2.552657 -0.413334
vn 0.674877 0.544736 0.497799
v 0.838447 2.485834 -0.318410
vn -0.695058 0.521775 0.494616
v 0.550947 2.480326 -0.321219
vn 0.667285 0.399828 0.628385
v 0.838447 2.401955 -0.245176
vn -0.680254 0.395487 0.617126
v 0.550947 2.390064 -0.241977
vn 0.690907 0.243332 0.680762
v 0.838447 2.283733 -0.194256
vn -0.686171 0.240865 0.686406
v 0.550947 2.284608 -0.193059
vn 0.676763 0.103819 0.728844
v 0.838447 2.183747 -0.166220
vn -0.689699 0.093914 0.717980
v 0.550947 2.182493 -0.169029
vn -0.675017 -0.099840 0.731016
v 0.550947 2.046341 -0.165024
vn 0.669327 -0.109886 0.734797
v 0.838447 2.043339 -0.164218
vn 0.679809 -0.306765 0.666149
v 0.838447 1.924206 -0.202265
vn -0.679166 -0.300799 0.669518
v 0.550947 1.914443 -0.205074
vn -0.671379 -0.472309 0.571118
v 0.550947 1.795310 -0.277164
vn 0.687261 -0.464552 0.558447
v 0.838447 1.796563 -0.284368
vn 0.681359 -0.598359 0.421565
v 0.838447 1.728487 -0.356457
vn -0.674538 -0.608201 0.418439
v 0.550947 1.722979 -0.357264
vn -0.685988 -0.670465 0.282661
v 0.550947 1.667667 -0.465399
vn 0.694050 -0.664256 0.277595
v 0.838447 1.671049 -0.468597
vn 0.684309 -0.715201 0.142159
v 0.838447 1.641264 -0.558710
vn -0.811420 -0.574172 0.109193
v 0.550947 1.637884 -0.553508
vn 0.835533 -0.549357 0.009596
v 0.838447 1.632755 -0.672851
vn -0.812996 -0.580938 -0.039354
v 0.550947 1.633629 -0.665648
vn 0.712395 -0.618861 -0.330913
v 0.837798 1.654319 -0.760961
vn -0.715980 -0.656557 -0.237286
v 0.549649 1.651229 -0.757762
vn -0.650794 -0.640469 -0.407759
v 0.549649 1.698031 -0.845873
vn 0.539118 -0.725965 -0.426998
v 0.837798 1.701122 -0.849072
vn -0.697125 -0.541992 -0.469319
v 0.549649 1.757597 -0.921968
vn 0.664948 -0.544108 -0.511655
v 0.837798 1.756433 -0.929172
vn 0.685540 -0.416382 -0.597211
v 0.837798 1.822382 -0.981236
vn -0.653460 -0.427625 -0.624601
v 0.549649 1.817164 -0.986048
vn -0.724549 -0.298829 -0.621071
v 0.549649 1.898004 -1.018088
vn 0.682477 -0.350691 -0.641280
v 0.837798 1.896841 -1.027293
vn -0.692088 -0.257605 -0.674280
v 0.549649 1.966081 -1.054132
vn 0.674181 -0.240357 -0.698362
v 0.837798 1.969171 -1.061336
vn -0.677574 -0.052615 -0.733570
v 0.549649 2.076704 -1.082167
vn 0.666011 -0.044884 -0.744591
v 0.837798 2.077667 -1.085366
vn -0.682385 0.175384 -0.709642
v 0.549649 2.238385 -1.066147
vn 0.665325 0.185598 -0.723116
v 0.837798 2.243603 -1.069346
vn -0.683964 0.353627 -0.638076
v 0.549649 2.387302 -1.006072
vn 0.677997 0.355492 -0.643387
v 0.837798 2.379755 -1.011274
vn -0.678954 0.506551 -0.531439
v 0.549649 2.459632 -0.954008
vn 0.676496 0.492612 -0.547437
v 0.837798 2.456341 -0.957206
vn -0.688516 0.610771 -0.391030
v 0.549649 2.523453 -0.873908
vn 0.668700 0.615521 -0.417102
v 0.837798 2.524417 -0.881111
vn -0.688224 0.687842 -0.230696
v 0.549649 2.574511 -0.769778
vn 0.669917 0.702255 -0.240933
v 0.837798 2.579728 -0.768972
vn -0.999999 0.000075 0.001651
v 0.552083 2.118323 -0.618302
vn 0.999987 -0.000161 -0.005144
v 0.839583 2.123634 -0.907982
vn 0.999983 0.003105 -0.004897
v 0.839387 2.273159 -0.881759
vn 0.999987 -0.002673 -0.004453
v 0.839387 2.006628 -0.881616
vn 0.999987 -0.003612 -0.003600
v 0.839387 1.914695 -0.823973
vn 0.999991 -0.003739 -0.001885
v 0.839387 1.850722 -0.713931
vn 0.999996 -0.002747 0.000399
v 0.839387 1.850418 -0.580908
vn 0.999996 -0.002562 0.001554
v 0.839387 1.877922 -0.482547
vn 0.999996 -0.001705 0.002465
v 0.839387 1.965752 -0.395868
vn 0.999995 -0.000705 0.002983
v 0.839387 2.056014 -0.353387
vn 0.999995 0.000467 0.003090
v 0.839387 2.166637 -0.349667
vn 0.999995 0.001397 0.002803
v 0.839387 2.264953 -0.380420
vn 0.999987 0.004058 -0.003244
v 0.839387 2.359165 -0.802660
vn 0.999989 0.004022 -0.002497
v 0.839387 2.410374 -0.702249
vn 0.999995 0.003002 0.000380
v 0.839583 2.414476 -0.580288
vn 0.999994 0.002308 0.002597
v 0.839387 2.369345 -0.455513
vn 1.000000 -0.000110 0.000115
v 0.839583 2.124840 -0.616608
vn 0.684017 0.712719 0.155408
v 1.173447 2.587949 -0.530675
vn 0.661653 0.749528 -0.020584
v 1.173447 2.604967 -0.644817
vn -0.677173 0.735612 -0.017633
v 0.885947 2.599459 -0.645623
vn -0.698772 0.700477 0.145088
v 0.885947 2.582441 -0.525474
vn 0.667730 0.671208 0.321895
v 1.173447 2.553911 -0.414530
vn -0.668747 0.667121 0.328218
v 0.885947 2.552657 -0.413334
vn 0.674877 0.544736 0.497799
v 1.173447 2.485834 -0.318410
vn -0.695058 0.521775 0.494616
v 0.885947 2.480326 -0.321219
vn 0.667285 0.399828 0.628385
v 1.173447 2.401955 -0.245176
vn -0.680254 0.395487 0.617126
v 0.885947 2.390064 -0.241977
vn 0.690907 0.243332 0.680762
v 1.173447 2.283733 -0.194256
vn -0.686171 0.240865 0.686406
v 0.885947 2.284608 -0.193059
vn 0.676763 0.103819 0.728844
v 1.173447 2.183747 -0.166220
vn -0.689699 0.093914 0.717980
v 0.885947 2.182493 -0.169029
vn -0.675017 -0.099840 0.731016
v 0.885947 2.046341 -0.165024
vn 0.669327 -0.109886 0.734797
v 1.173447 2.043339 -0.164218
vn 0.679809 -0.306765 0.666149
v 1.173447 1.924206 -0.202265
vn -0.679166 -0.300799 0.669518
v 0.885947 1.914443 -0.205074
vn -0.671379 -0.472309 0.571118
v 0.885947 1.795310 -0.277164
vn 0.687261 -0.464552 0.558447
v 1.173447 1.796563 -0.284368
vn 0.681359 -0.598359 0.421565
v 1.173447 1.728487 -0.356457
vn -0.674538 -0.608201 0.418439
v 0.885947 1.722979 -0.357264
vn -0.685988 -0.670465 0.282661
v 0.885947 1.667667 -0.465399
vn 0.694050 -0.664256 0.277595
v 1.173447 1.671049 -0.468597
vn 0.684309 -0.715201 0.142159
v 1.173447 1.641264 -0.558710
vn -0.811420 -0.574172 0.109193
v 0.885947 1.637884 -0.553508
vn 0.835533 -0.549357 0.009596
v 1.173447 1.632755 -0.672851
vn -0.812996 -0.580938 -0.039354
v 0.885947 1.633629 -0.665648
vn 0.712395 -0.618861 -0.330913
v 1.172798 1.654319 -0.760961
vn -0.715980 -0.656557 -0.237286
v 0.884649 1.651229 -0.757762
vn -0.650794 -0.640469 -0.407759
v 0.884649 1.698031 -0.845873
vn 0.539118 -0.725965 -0.426998
v 1.172798 1.701122 -0.849072
vn -0.697125 -0.541992 -0.469319
v 0.884649 1.757597 -0.921968
vn 0.664948 -0.544108 -0.511655
v 1.172798 1.756433 -0.929172
vn 0.685540 -0.416382 -0.597211
v 1.172798 1.822382 -0.981236
vn -0.653460 -0.427625 -0.624601
v 0.884649 1.817164 -0.986048
vn -0.724549 -0.298829 -0.621071
v 0.884649 1.898004 -1.018088
vn 0.682477 -0.350691 -0.641280
v 1.172798 1.896841 -1.027293
vn -0.692088 -0.257605 -0.674280
v 0.884649 1.966081 -1.054132
vn 0.674181 -0.240357 -0.698362
v 1.172798 1.969171 -1.061336
vn -0.677574 -0.052615 -0.733570
v 0.884649 2.076704 -1.082167
vn 0.666011 -0.044884 -0.744591
v 1.172798 2.077667 -1.085366
vn -0.682385 0.175384 -0.709642
v 0.884649 2.238385 -1.066147
vn 0.665325 0.185598 -0.723116
v 1.172798 2.243603 -1.069346
vn -0.683964 0.353627 -0.638076
v 0.884649 2.387302 -1.006072
vn 0.677997 0.355492 -0.643387
v 1.172798 2.379755 -1.011274
vn -0.678954 0.506551 -0.531439
v 0.884649 2.459632 -0.954008
vn 0.676496 0.492612 -0.547437
v 1.172798 2.456341 -0.957206
vn -0.688516 0.610771 -0.391030
v 0.884649 2.523453 -0.873908
vn 0.668700 0.615521 -0.417102
v 1.172798 2.524417 -0.881111
vn -0.688224 0.687842 -0.230696
v 0.884649 2.574511 -0.769778
vn 0.669917 0.702255 -0.240933
v 1.172798 2.579728 -0.768972
vn -0.999999 0.000075 0.001651
v 0.887083 2.118323 -0.618302
vn 0.999987 -0.000161 -0.005144
v 1.174583 2.123634 -0.907982
vn 0.999983 0.003105 -0.004897
v 1.174387 2.273159 -0.881759
vn 0.999987 -0.002673 -0.004453
v 1.174387 2.006628 -0.881616
vn 0.999987 -0.003612 -0.003600
v 1.174387 1.914695 -0.823973
vn 0.999991 -0.003739 -0.001885
v 1.174387 1.850722 -0.713931
vn 0.999996 -0.002747 0.000399
v 1.174387 1.850418 -0.580908
vn 0.999996 -0.002562 0.001554
v 1.174387 1.877922 -0.482547
vn 0.999996 -0.001705 0.002465
v 1.174387 1.965752 -0.395868
vn 0.999995 -0.000705 0.002983
v 1.174387 2.056014 -0.353387
vn 0.999995 0.000467 0.003090
v 1.174387 2.166637 -0.349667
vn 0.999995 0.001397 0.002803
v 1.174387 2.264953 -0.380420
vn 0.999987 0.004058 -0.003244
v 1.174387 2.359165 -0.802660
vn 0.999989 0.004022 -0.002497
v 1.174387 2.410374 -0.702249
vn 0.999995 0.003002 0.000380
v 1.174583 2.414476 -0.580288
vn 0.999994 0.002308 0.002597
v 1.174387 2.369345 -0.455513
vn 1.000000 -0.000110 0.000115
v 1.174583 2.124840 -0.616608
# 138 vertices, 0 vertices normals


usemtl material_0
vt 0.028921 0.966022
vt 0.028921 0.958019
vt 0.174358 0.957962
f 1/1/1 2/2/2 3/3/3
vt 0.174358 0.966387
f 3/3/3 4/4/4 1/1/1
vt 0.028921 0.974166
f 4/4/4 5/5/5 1/1/1
vt 0.174358 0.974250
f 4/4/4 6/6/6 5/5/5
vt 0.028921 0.980906
f 6/6/6 7/7/7 5/5/5
vt 0.174358 0.980709
f 7/7/7 6/6/6 8/8/8
vt 0.028921 0.986041
f 8/8/8 9/9/9 7/7/7
vt 0.174358 0.986265
f 8/8/8 10/10/10 9/9/9
vt 0.028921 0.989611
f 10/10/10 11/11/11 9/9/9
vt 0.174358 0.989695
f 10/10/10 12/12/12 11/11/11
vt 0.028921 0.991577
f 12/12/12 13/13/13 11/11/11
vt 0.174358 0.991380
f 12/12/12 14/14/14 13/13/13
vt 0.174358 0.991661
f 14/14/14 15/15/15 13/13/13
vt 0.028921 0.991718
f 15/15/15 16/16/16 13/13/13
vt 0.028921 0.989050
f 15/15/15 17/17/17 16/16/16
vt 0.174358 0.988853
f 15/15/15 18/18/18 17/17/17
vt 0.174358 0.983798
f 18/18/18 19/19/19 17/17/17
vt 0.028921 0.983293
f 19/19/19 20/20/20 17/17/17
vt 0.028921 0.978238
f 19/19/19 21/21/21 20/20/20
vt 0.174358 0.978181
f 19/19/19 22/22/22 21/21/21
vt 0.174358 0.970599
vt 0.028921 0.970375
f 22/22/22 23/23/23 24/24/24
f 21/21/21 22/22/22 24/24/24
vt 0.028921 0.964056
f 23/23/23 25/25/25 24/24/24
vt 0.174358 0.964421
f 23/23/23 26/26/26 25/25/25
vt 0.028921 0.956053
f 26/26/26 27/27/27 25/25/25
vt 0.174358 0.956558
f 26/26/26 28/28/28 27/27/27
vt 0.029249 0.949875
vt 0.175014 0.950099
f 29/29/29 27/27/27 30/30/30
f 27/27/27 28/28/28 30/30/30
f 30/30/30 27/27/27 29/29/29
vt 0.175014 0.943921
vt 0.029249 0.943696
f 31/31/31 32/32/32 29/29/29
f 29/29/29 30/30/30 31/31/31
f 31/31/31 32/32/32 29/29/29
vt 0.175014 0.938585
vt 0.029249 0.938080
f 33/33/33 34/34/34 32/32/32
f 32/32/32 31/31/31 33/33/33
vt 0.029249 0.934429
f 34/34/34 33/33/33 35/35/35
vt 0.175014 0.934092
f 33/33/33 36/36/36 35/35/35
vt 0.175014 0.931846
vt 0.029249 0.931200
f 37/37/37 38/38/38 35/35/35
f 36/36/36 37/37/37 35/35/35
vt 0.175014 0.929318
vt 0.029249 0.928813
f 39/39/39 40/40/40 38/38/38
f 37/37/37 39/39/39 38/38/38
vt 0.175014 0.927352
vt 0.029249 0.927128
f 41/41/41 42/42/42 40/40/40
f 40/40/40 39/39/39 41/41/41
vt 0.175014 0.928476
vt 0.029249 0.928251
f 43/43/43 44/44/44 42/42/42
f 41/41/41 43/43/43 42/42/42
vt 0.175014 0.932687
vt 0.029249 0.932323
f 43/43/43 45/45/45 46/46/46
f 46/46/46 44/44/44 43/43/43
vt 0.175014 0.936339
vt 0.029249 0.936114
f 47/47/47 48/48/48 46/46/46
f 46/46/46 45/45/45 47/47/47
vt 0.175014 0.941955
vt 0.029249 0.941450
f 49/49/49 50/50/50 48/48/48
f 47/47/47 49/49/49 48/48/48
vt 0.175014 0.949257
vt 0.029249 0.949313
f 49/49/49 51/51/51 52/52/52
f 52/52/52 50/50/50 49/49/49
f 51/51/51 2/2/2 52/52/52
f 51/51/51 3/3/3 2/2/2
vt 0.173783 0.959878
f 8/8/8 53/53/53 10/10/10
f 53/53/53 12/12/12 10/10/10
f 53/53/53 14/14/14 12/12/12
f 53/53/53 15/15/15 14/14/14
f 53/53/53 18/18/18 15/15/15
f 53/53/53 19/19/19 18/18/18
f 53/53/53 23/23/23 22/22/22
f 53/53/53 22/22/22 19/19/19
f 53/53/53 28/28/28 26/26/26
f 26/26/26 23/23/23 53/53/53
f 53/53/53 28/28/28 26/26/26
f 53/53/53 30/30/30 28/28/28
f 53/53/53 31/31/31 30/30/30
f 53/53/53 33/33/33 31/31/31
f 53/53/53 36/36/36 33/33/33
f 53/53/53 37/37/37 36/36/36
f 53/53/53 39/39/39 37/37/37
f 53/53/53 41/41/41 39/39/39
f 53/53/53 43/43/43 41/41/41
f 53/53/53 45/45/45 43/43/43
f 53/53/53 47/47/47 45/45/45
f 53/53/53 49/49/49 47/47/47
f 53/53/53 51/51/51 49/49/49
f 53/53/53 3/3/3 51/51/51
f 53/53/53 4/4/4 3/3/3
f 53/53/53 6/6/6 4/4/4
f 53/53/53 8/8/8 6/6/6
vt 0.457100 0.049731
vt 0.476644 0.022990
vt 0.481460 0.054077
f 54/54/54 44/55/44 55/56/55
vt 0.449611 0.020335
f 54/54/54 42/57/42 44/55/44
vt 0.438038 0.054101
vt 0.431936 0.024317
f 54/54/54 56/58/56 40/59/40
f 54/54/54 40/59/40 42/57/42
vt 0.420152 0.029959
f 56/58/56 38/60/38 40/59/40
vt 0.408021 0.037592
f 38/60/38 56/58/56 35/61/35
vt 0.423061 0.063654
vt 0.397277 0.046220
f 57/62/57 34/63/34 35/61/35
vt 0.412638 0.081890
vt 0.388266 0.059494
f 58/64/58 32/65/32 34/63/34
f 35/61/35 56/58/56 57/62/57
f 57/62/57 58/64/58 34/63/34
vt 0.380641 0.074097
f 58/64/58 29/66/29 32/65/32
vt 0.377128 0.088698
f 58/64/58 27/67/27 29/66/29
vt 0.412589 0.103935
vt 0.378514 0.107614
f 58/64/58 59/68/59 25/69/25
f 58/64/58 25/69/25 27/67/27
vt 0.417069 0.120236
vt 0.383366 0.122548
f 59/68/59 60/70/60 24/71/24
f 24/71/24 25/69/25 59/68/59
vt 0.392725 0.141132
f 60/70/60 21/72/21 24/71/24
vt 0.431378 0.134600
f 21/72/21 60/70/60 61/73/61
vt 0.403815 0.153079
f 61/73/61 20/74/20 21/72/21
vt 0.446083 0.141641
vt 0.424610 0.166685
f 61/73/61 62/75/62 17/76/17
vt 0.464106 0.142257
vt 0.444018 0.172990
f 62/75/62 63/77/63 16/78/16
vt 0.480123 0.137161
vt 0.466893 0.172658
f 63/77/63 64/79/64 13/80/13
f 13/80/13 16/78/16 63/77/63
f 16/78/16 17/76/17 62/75/62
f 61/73/61 17/76/17 20/74/20
vt 0.498826 0.032614
vt 0.495472 0.067186
f 46/81/46 65/82/65 55/56/55
f 44/55/44 46/81/46 55/56/55
vt 0.511303 0.041574
f 46/81/46 48/83/48 65/82/65
vt 0.522393 0.054184
f 48/83/48 50/84/50 65/82/65
vt 0.531405 0.072769
vt 0.503814 0.083826
f 50/84/50 52/85/52 66/86/66
f 50/84/50 66/86/66 65/82/65
vt 0.535517 0.093344
vt 0.504483 0.104038
f 2/87/2 67/88/67 66/86/66
f 52/85/52 2/87/2 66/86/66
vt 0.532744 0.112260
f 2/87/2 1/89/1 67/88/67
vt 0.527199 0.131508
vt 0.497130 0.124716
f 5/90/5 68/91/68 67/88/67
f 67/88/67 1/89/1 5/90/5
vt 0.516108 0.147437
f 7/92/7 64/79/64 68/91/68
f 68/91/68 5/90/5 7/92/7
vt 0.502443 0.159574
f 7/92/7 9/93/9 64/79/64
vt 0.483182 0.168013
f 9/93/9 11/94/11 64/79/64
f 11/94/11 13/80/13 64/79/64
vt 0.457296 0.098019
f 69/95/69 54/54/54 55/56/55
f 65/82/65 69/95/69 55/56/55
f 69/95/69 65/82/65 66/86/66
f 66/86/66 67/88/67 69/95/69
f 67/88/67 68/91/68 69/95/69
f 68/91/68 64/79/64 69/95/69
f 64/79/64 63/77/63 69/95/69
f 63/77/63 62/75/62 69/95/69
f 62/75/62 61/73/61 69/95/69
f 61/73/61 60/70/60 69/95/69
f 69/95/69 60/70/60 59/68/59
f 59/68/59 58/64/58 69/95/69
f 69/95/69 58/64/58 57/62/57
f 69/95/69 57/62/57 56/58/56
f 56/58/56 54/54/54 69/95/69
f 70/1/70 71/2/71 72/3/72
f 72/3/72 73/4/73 70/1/70
f 73/4/73 74/5/74 70/1/70
f 73/4/73 75/6/75 74/5/74
f 75/6/75 76/7/76 74/5/74
f 76/7/76 75/6/75 77/8/77
f 77/8/77 78/9/78 76/7/76
f 77/8/77 79/10/79 78/9/78
f 79/10/79 80/11/80 78/9/78
f 79/10/79 81/12/81 80/11/80
f 81/12/81 82/13/82 80/11/80
f 81/12/81 83/14/83 82/13/82
f 83/14/83 84/15/84 82/13/82
f 84/15/84 85/16/85 82/13/82
f 84/15/84 86/17/86 85/16/85
f 84/15/84 87/18/87 86/17/86
f 87/18/87 88/19/88 86/17/86
f 88/19/88 89/20/89 86/17/86
f 88/19/88 90/21/90 89/20/89
f 88/19/88 91/22/91 90/21/90
f 91/22/91 92/23/92 93/24/93
f 90/21/90 91/22/91 93/24/93
f 92/23/92 94/25/94 93/24/93
f 92/23/92 95/26/95 94/25/94
f 95/26/95 96/27/96 94/25/94
f 95/26/95 97/28/97 96/27/96
f 98/29/98 96/27/96 99/30/99
f 96/27/96 97/28/97 99/30/99
f 99/30/99 96/27/96 98/29/98
f 100/31/100 101/32/101 98/29/98
f 98/29/98 99/30/99 100/31/100
f 100/31/100 101/32/101 98/29/98
f 102/33/102 103/34/103 101/32/101
f 101/32/101 100/31/100 102/33/102
f 103/34/103 102/33/102 104/35/104
f 102/33/102 105/36/105 104/35/104
f 106/37/106 107/38/107 104/35/104
f 105/36/105 106/37/106 104/35/104
f 108/39/108 109/40/109 107/38/107
f 106/37/106 108/39/108 107/38/107
f 110/41/110 111/42/111 109/40/109
f 109/40/109 108/39/108 110/41/110
f 112/43/112 113/44/113 111/42/111
f 110/41/110 112/43/112 111/42/111
f 112/43/112 114/45/114 115/46/115
f 115/46/115 113/44/113 112/43/112
f 116/47/116 117/48/117 115/46/115
f 115/46/115 114/45/114 116/47/116
f 118/49/118 119/50/119 117/48/117
f 116/47/116 118/49/118 117/48/117
f 118/49/118 120/51/120 121/52/121
f 121/52/121 119/50/119 118/49/118
f 120/51/120 71/2/71 121/52/121
f 120/51/120 72/3/72 71/2/71
f 77/8/77 122/53/122 79/10/79
f 122/53/122 81/12/81 79/10/79
f 122/53/122 83/14/83 81/12/81
f 122/53/122 84/15/84 83/14/83
f 122/53/122 87/18/87 84/15/84
f 122/53/122 88/19/88 87/18/87
f 122/53/122 92/23/92 91/22/91
f 122/53/122 91/22/91 88/19/88
f 122/53/122 97/28/97 95/26/95
f 95/26/95 92/23/92 122/53/122
f 122/53/122 97/28/97 95/26/95
f 122/53/122 99/30/99 97/28/97
f 122/53/122 100/31/100 99/30/99
f 122/53/122 102/33/102 100/31/100
f 122/53/122 105/36/105 102/33/102
f 122/53/122 106/37/106 105/36/105
f 122/53/122 108/39/108 106/37/106
f 122/53/122 110/41/110 108/39/108
f 122/53/122 112/43/112 110/41/110
f 122/53/122 114/45/114 112/43/112
f 122/53/122 116/47/116 114/45/114
f 122/53/122 118/49/118 116/47/116
f 122/53/122 120/51/120 118/49/118
f 122/53/122 72/3/72 120/51/120
f 122/53/122 73/4/73 72/3/72
f 122/53/122 75/6/75 73/4/73
f 122/53/122 77/8/77 75/6/75
f 123/54/123 113/55/113 124/56/124
f 123/54/123 111/57/111 113/55/113
f 123/54/123 125/58/125 109/59/109
f 123/54/123 109/59/109 111/57/111
f 125/58/125 107/60/107 109/59/109
f 107/60/107 125/58/125 104/61/104
f 126/62/126 103/63/103 104/61/104
f 127/64/127 101/65/101 103/63/103
f 104/61/104 125/58/125 126/62/126
f 126/62/126 127/64/127 103/63/103
f 127/64/127 98/66/98 101/65/101
f 127/64/127 96/67/96 98/66/98
f 127/64/127 128/68/128 94/69/94
f 127/64/127 94/69/94 96/67/96
f 128/68/128 129/70/129 93/71/93
f 93/71/93 94/69/94 128/68/128
f 129/70/129 90/72/90 93/71/93
f 90/72/90 129/70/129 130/73/130
f 130/73/130 89/74/89 90/72/90
f 130/73/130 131/75/131 86/76/86
f 131/75/131 132/77/132 85/78/85
f 132/77/132 133/79/133 82/80/82
f 82/80/82 85/78/85 132/77/132
f 85/78/85 86/76/86 131/75/131
f 130/73/130 86/76/86 89/74/89
f 115/81/115 134/82/134 124/56/124
f 113/55/113 115/81/115 124/56/124
f 115/81/115 117/83/117 134/82/134
f 117/83/117 119/84/119 134/82/134
f 119/84/119 121/85/121 135/86/135
f 119/84/119 135/86/135 134/82/134
f 71/87/71 136/88/136 135/86/135
f 121/85/121 71/87/71 135/86/135
f 71/87/71 70/89/70 136/88/136
f 74/90/74 137/91/137 136/88/136
f 136/88/136 70/89/70 74/90/74
f 76/92/76 133/79/133 137/91/137
f 137/91/137 74/90/74 76/92/76
f 76/92/76 78/93/78 133/79/133
f 78/93/78 80/94/80 133/79/133
f 80/94/80 82/80/82 133/79/133
f 138/95/138 123/54/123 124/56/124
f 134/82/134 138/95/138 124/56/124
f 138/95/138 134/82/134 135/86/135
f 135/86/135 136/88/136 138/95/138
f 136/88/136 137/91/137 138/95/138
f 137/91/137 133/79/133 138/95/138
f 133/79/133 132/77/132 138/95/138
f 132/77/132 131/75/131 138/95/138
f 131/75/131 130/73/130 138/95/138
f 130/73/130 129/70/129 138/95/138
f 138/95/138 129/70/129 128/68/128
f 128/68/128 127/64/127 138/95/138
f 138/95/138 127/64/127 126/62/126
f 138/95/138 126/62/126 125/58/125
f 125/58/125 123/54/123 138/95/138
# 274 faces, 95 coords texture

# End of File
