####
#
# OBJ File Generated by Meshlab
#
####
# Object wheel2.obj
#
# Vertices: 95
# Faces: 137
#
####
mtllib ./wheel2.obj.mtl

vn -0.999987 0.000161 -0.005144
v -23.491665 -50.563583 -18.189953
vn -0.999952 -0.002551 -0.009490
v -23.455952 -52.962959 -21.417221
vn -0.999983 -0.003105 -0.004897
v -23.487747 -53.554089 -17.665493
vn -0.999951 0.000767 -0.009867
v -23.455952 -49.644253 -21.737617
vn -0.999987 0.002673 -0.004453
v -23.487747 -48.223469 -17.662624
vn -0.999958 0.003157 -0.008569
v -23.455952 -47.474335 -21.257015
vn -0.999961 0.004238 -0.007719
v -23.455952 -46.027721 -20.576172
vn -0.999962 0.005011 -0.007180
v -23.455952 -44.538555 -19.655029
vn -0.999987 0.003612 -0.003600
v -23.487747 -46.384808 -16.509754
vn -0.999966 0.006204 -0.005512
v -23.455952 -43.219578 -18.613735
vn -0.999991 0.003739 -0.001885
v -23.487747 -45.105350 -14.308914
vn -0.999968 0.006823 -0.004211
v -23.455952 -42.113350 -17.011738
vn -0.999957 0.006526 -0.006547
v -23.455952 -41.177296 -15.249529
vn -0.999982 0.004953 -0.003387
v -23.468937 -40.746002 -13.487331
vn -0.999996 0.002747 0.000399
v -23.487747 -45.099277 -11.648468
vn -0.999990 0.004341 0.000781
v -23.468937 -40.916191 -11.204502
vn -0.999996 0.002562 0.001554
v -23.487747 -45.649345 -9.681249
vn -0.999989 0.004383 0.001723
v -23.468937 -41.511883 -9.402251
vn -0.999989 0.003875 0.002811
v -23.468937 -42.660645 -7.159451
vn -0.999996 0.001705 0.002465
v -23.487747 -47.405945 -7.947664
vn -0.999988 0.003155 0.003647
v -23.468937 -44.022167 -5.717659
vn -0.999995 0.000705 0.002983
v -23.487747 -49.211182 -7.098035
vn -0.999987 0.002147 0.004536
v -23.468937 -46.575035 -4.075610
vn -0.999995 -0.000467 0.003090
v -23.487747 -51.423653 -7.023649
vn -0.999987 0.000738 0.004972
v -23.468937 -48.957691 -3.314663
vn -0.999995 -0.001397 0.002803
v -23.487747 -53.389961 -7.638700
vn -0.999987 -0.000731 0.005031
v -23.468937 -51.765839 -3.354712
vn -0.999957 -0.004804 -0.007956
v -23.455952 -55.686008 -20.255783
vn -0.999987 -0.004058 -0.003244
v -23.487747 -55.274212 -16.083511
vn -0.999961 -0.005792 -0.006644
v -23.455952 -57.217720 -19.174431
vn -0.999961 -0.007342 -0.004859
v -23.455952 -58.579250 -17.652531
vn -0.999960 -0.007339 -0.005199
v -23.455952 -59.685474 -15.409740
vn -0.999989 -0.004022 -0.002497
v -23.487747 -56.298389 -14.075291
vn -0.999977 -0.006274 -0.002588
v -23.468937 -60.190247 -12.926636
vn -0.999995 -0.003002 0.000380
v -23.491665 -56.380432 -11.636065
vn -0.999980 -0.006159 0.001371
v -23.468937 -59.849880 -10.643806
vn -0.999984 -0.004976 0.002656
v -23.468937 -59.169121 -8.320912
vn -0.999994 -0.002308 0.002597
v -23.487747 -55.477818 -9.140574
vn -0.999987 -0.003726 0.003546
v -23.468937 -57.807587 -6.398508
vn -0.999988 -0.002746 0.004173
v -23.468937 -56.130009 -4.933826
vn -0.999987 -0.001675 0.004883
v -23.468937 -53.765560 -3.915419
vn -1.000000 0.000110 0.000115
v -23.491665 -50.587711 -12.362458
vn 0.016032 -0.976923 0.212991
v -23.468937 -59.940788 -10.734715
vn 0.018694 -0.999506 -0.025260
v -23.468937 -60.281155 -13.017546
vn 0.677173 -0.735612 -0.017633
v -17.718941 -60.171005 -13.033668
vn 0.698772 -0.700477 0.145088
v -17.718941 -59.830631 -10.630688
vn 0.006091 -0.901751 0.432213
v -23.468937 -59.260029 -8.411822
vn 0.668747 -0.667121 0.328218
v -17.718941 -59.234959 -8.387889
vn 0.013067 -0.738197 0.674459
v -23.468937 -57.898495 -6.489418
vn 0.695058 -0.521775 0.494616
v -17.718941 -57.788330 -6.545594
vn 0.013255 -0.536719 0.843657
v -23.468937 -56.220917 -5.024736
vn 0.680254 -0.395487 0.617126
v -17.718941 -55.983101 -4.960752
vn -0.000720 -0.336645 0.941631
v -23.468937 -53.856468 -4.006329
vn 0.686171 -0.240865 0.686406
v -17.718941 -53.873966 -3.982390
vn 0.001647 -0.141007 0.990007
v -23.468937 -51.856747 -3.445621
vn 0.689699 -0.093914 0.717980
v -17.718941 -51.831676 -3.501798
vn 0.675017 0.099840 0.731016
v -17.718941 -49.108643 -3.421695
vn 0.004317 0.147905 0.988992
v -23.468937 -49.048599 -3.405573
vn -0.007441 0.418228 0.908312
v -23.468937 -46.665943 -4.166520
vn 0.679166 0.300799 0.669518
v -17.718941 -46.470684 -4.222694
vn 0.671379 0.472309 0.571118
v -17.718941 -44.088020 -5.664488
vn -0.022046 0.639296 0.768645
v -23.468937 -44.113075 -5.808568
vn -0.017335 0.817398 0.575812
v -23.468937 -42.751553 -7.250361
vn 0.674538 0.608201 0.418439
v -17.718941 -42.641403 -7.266491
vn 0.685988 0.670465 0.282661
v -17.718941 -41.535164 -9.429190
vn -0.015227 0.922527 0.385631
v -23.468937 -41.602791 -9.493161
vn -0.014187 0.980699 0.195008
v -23.468937 -41.007099 -11.295412
vn 0.811420 0.574172 0.109193
v -17.718941 -40.939499 -11.191382
vn -0.006573 0.999719 0.022761
v -23.468937 -40.836910 -13.578241
vn 0.812996 0.580938 -0.039354
v -17.718941 -40.854401 -13.434175
vn -0.004266 0.883133 -0.469104
v -23.455952 -41.268204 -15.340439
vn 0.715980 0.656557 -0.237286
v -17.692970 -41.206387 -15.276464
vn 0.650794 0.640469 -0.407759
v -17.692970 -42.142437 -17.038675
vn 0.001773 0.862009 -0.506890
v -23.455952 -42.204258 -17.102648
vn 0.697125 0.541992 -0.469319
v -17.692970 -43.333759 -18.560572
vn 0.020067 0.728204 -0.685066
v -23.455952 -43.310486 -18.704645
vn 0.016648 0.571843 -0.820194
v -23.455952 -44.629463 -19.745939
vn 0.653460 0.427625 -0.624601
v -17.692970 -44.525101 -19.842169
vn 0.724549 0.298829 -0.621071
v -17.692970 -46.141903 -20.482965
vn 0.024666 0.479645 -0.877116
v -23.455952 -46.118629 -20.667082
vn 0.692088 0.257605 -0.674280
v -17.692970 -47.503433 -21.203859
vn 0.015513 0.325224 -0.945510
v -23.455952 -47.565243 -21.347925
vn 0.677574 0.052615 -0.733570
v -17.692970 -49.715897 -21.764551
vn 0.011365 0.060011 -0.998133
v -23.455952 -49.735161 -21.828527
vn 0.682385 -0.175384 -0.709642
v -17.692970 -52.949509 -21.444159
vn 0.015251 -0.248478 -0.968518
v -23.455952 -53.053867 -21.508131
vn 0.683964 -0.353627 -0.638076
v -17.692970 -55.927853 -20.242655
vn 0.008097 -0.483310 -0.875412
v -23.455952 -55.776917 -20.346693
vn 0.678954 -0.506551 -0.531439
v -17.692970 -57.374454 -19.201365
vn 0.008510 -0.668976 -0.743236
v -23.455952 -57.308628 -19.265341
vn 0.688516 -0.610771 -0.391030
v -17.692970 -58.650887 -17.599363
vn 0.016792 -0.827667 -0.560968
v -23.455952 -58.670158 -17.743441
vn 0.688224 -0.687842 -0.230695
v -17.692970 -59.672028 -15.516775
vn 0.015881 -0.946520 -0.322255
v -23.455952 -59.776382 -15.500650
vn 0.999999 -0.000075 0.001651
v -17.741669 -50.548267 -12.487250
# 95 vertices, 0 vertices normals


usemtl material_0
vt 0.415969 0.234040
vt 0.434020 0.208825
vt 0.438467 0.238137
f 1/1/1 2/2/2 3/3/3
vt 0.409053 0.206322
f 1/1/1 4/4/4 2/2/2
vt 0.398365 0.238160
vt 0.392729 0.210077
f 1/1/1 5/5/5 6/6/6
f 1/1/1 6/6/6 4/4/4
vt 0.381846 0.215396
f 5/5/5 7/7/7 6/6/6
vt 0.370643 0.222593
f 7/7/7 5/5/5 8/8/8
vt 0.384533 0.247167
vt 0.360720 0.230729
f 9/9/9 10/10/10 8/8/8
vt 0.374907 0.264362
vt 0.352398 0.243245
f 11/11/11 12/12/12 10/10/10
f 8/8/8 5/5/5 9/9/9
f 9/9/9 11/11/11 10/10/10
vt 0.345356 0.257014
f 11/11/11 13/13/13 12/12/12
vt 0.342111 0.270781
f 11/11/11 14/14/14 13/13/13
vt 0.374861 0.285148
vt 0.343392 0.288617
f 11/11/11 15/15/15 16/16/16
f 11/11/11 16/16/16 14/14/14
vt 0.378999 0.300518
vt 0.347873 0.302698
f 15/15/15 17/17/17 18/18/18
f 18/18/18 16/16/16 15/15/15
vt 0.356516 0.320221
f 17/17/17 19/19/19 18/18/18
vt 0.392214 0.314062
f 19/19/19 17/17/17 20/20/20
vt 0.366758 0.331485
f 20/20/20 21/21/21 19/19/19
vt 0.405795 0.320701
vt 0.385964 0.344314
f 20/20/20 22/22/22 23/23/23
vt 0.422440 0.321282
vt 0.403888 0.350260
f 22/22/22 24/24/24 25/25/25
vt 0.437232 0.316477
vt 0.425014 0.349947
f 24/24/24 26/26/26 27/27/27
f 27/27/27 25/25/25 24/24/24
f 25/25/25 23/23/23 22/22/22
f 20/20/20 23/23/23 21/21/21
vt 0.454505 0.217900
vt 0.451408 0.250498
f 28/28/28 29/29/29 3/3/3
f 2/2/2 28/28/28 3/3/3
vt 0.466029 0.226348
f 28/28/28 30/30/30 29/29/29
vt 0.476271 0.238239
f 30/30/30 31/31/31 29/29/29
vt 0.484593 0.255762
vt 0.459112 0.266187
f 31/31/31 32/32/32 33/33/33
f 31/31/31 33/33/33 29/29/29
vt 0.488391 0.275162
vt 0.459730 0.285245
f 34/34/34 35/35/35 33/33/33
f 32/32/32 34/34/34 33/33/33
vt 0.485830 0.292997
f 34/34/34 36/36/36 35/35/35
vt 0.480709 0.311146
vt 0.452939 0.304742
f 37/37/37 38/38/38 35/35/35
f 35/35/35 36/36/36 37/37/37
vt 0.470466 0.326166
f 39/39/39 26/26/26 38/38/38
f 38/38/38 37/37/37 39/39/39
vt 0.457846 0.337609
f 39/39/39 40/40/40 26/26/26
vt 0.440058 0.345566
f 40/40/40 41/41/41 26/26/26
f 41/41/41 27/27/27 26/26/26
vt 0.416151 0.279570
f 42/42/42 1/1/1 3/3/3
f 29/29/29 42/42/42 3/3/3
f 42/42/42 29/29/29 33/33/33
f 33/33/33 35/35/35 42/42/42
f 35/35/35 38/38/38 42/42/42
f 38/38/38 26/26/26 42/42/42
f 26/26/26 24/24/24 42/42/42
f 24/24/24 22/22/22 42/42/42
f 22/22/22 20/20/20 42/42/42
f 20/20/20 17/17/17 42/42/42
f 42/42/42 17/17/17 15/15/15
f 15/15/15 11/11/11 42/42/42
f 42/42/42 11/11/11 9/9/9
f 42/42/42 9/9/9 5/5/5
f 5/5/5 1/1/1 42/42/42
vt 0.028921 0.966022
vt 0.028921 0.958019
vt 0.174358 0.957962
f 43/43/43 44/44/44 45/45/45
vt 0.174358 0.966387
f 45/45/45 46/46/46 43/43/43
vt 0.028921 0.974166
f 46/46/46 47/47/47 43/43/43
vt 0.174358 0.974250
f 46/46/46 48/48/48 47/47/47
vt 0.028921 0.980906
f 48/48/48 49/49/49 47/47/47
vt 0.174358 0.980709
f 49/49/49 48/48/48 50/50/50
vt 0.028921 0.986041
f 50/50/50 51/51/51 49/49/49
vt 0.174358 0.986265
f 50/50/50 52/52/52 51/51/51
vt 0.028921 0.989611
f 52/52/52 53/53/53 51/51/51
vt 0.174358 0.989695
f 52/52/52 54/54/54 53/53/53
vt 0.028921 0.991577
f 54/54/54 55/55/55 53/53/53
vt 0.174358 0.991380
f 54/54/54 56/56/56 55/55/55
vt 0.174358 0.991661
f 56/56/56 57/57/57 55/55/55
vt 0.028921 0.991718
f 57/57/57 58/58/58 55/55/55
vt 0.028921 0.989050
f 57/57/57 59/59/59 58/58/58
vt 0.174358 0.988853
f 57/57/57 60/60/60 59/59/59
vt 0.174358 0.983798
f 60/60/60 61/61/61 59/59/59
vt 0.028921 0.983293
f 61/61/61 62/62/62 59/59/59
vt 0.028921 0.978238
f 61/61/61 63/63/63 62/62/62
vt 0.174358 0.978181
f 61/61/61 64/64/64 63/63/63
vt 0.174358 0.970599
vt 0.028921 0.970375
f 64/64/64 65/65/65 66/66/66
f 63/63/63 64/64/64 66/66/66
vt 0.028921 0.964056
f 65/65/65 67/67/67 66/66/66
vt 0.174358 0.964421
f 65/65/65 68/68/68 67/67/67
vt 0.028921 0.956053
f 68/68/68 69/69/69 67/67/67
vt 0.174358 0.956558
f 68/68/68 70/70/70 69/69/69
vt 0.029249 0.949875
vt 0.175014 0.950099
f 71/71/71 69/69/69 72/72/72
f 69/69/69 70/70/70 72/72/72
f 72/72/72 69/69/69 71/71/71
vt 0.175014 0.943921
vt 0.029249 0.943696
f 73/73/73 74/74/74 71/71/71
f 71/71/71 72/72/72 73/73/73
f 73/73/73 74/74/74 71/71/71
vt 0.175014 0.938585
vt 0.029249 0.938080
f 75/75/75 76/76/76 74/74/74
f 74/74/74 73/73/73 75/75/75
vt 0.029249 0.934429
f 76/76/76 75/75/75 77/77/77
vt 0.175014 0.934092
f 75/75/75 78/78/78 77/77/77
vt 0.175014 0.931846
vt 0.029249 0.931200
f 79/79/79 80/80/80 77/77/77
f 78/78/78 79/79/79 77/77/77
vt 0.175014 0.929318
vt 0.029249 0.928813
f 81/81/81 82/82/82 80/80/80
f 79/79/79 81/81/81 80/80/80
vt 0.175014 0.927352
vt 0.029249 0.927128
f 83/83/83 84/84/84 82/82/82
f 82/82/82 81/81/81 83/83/83
vt 0.175014 0.928476
vt 0.029249 0.928251
f 85/85/85 86/86/86 84/84/84
f 83/83/83 85/85/85 84/84/84
vt 0.175014 0.932687
vt 0.029249 0.932323
f 85/85/85 87/87/87 88/88/88
f 88/88/88 86/86/86 85/85/85
vt 0.175014 0.936339
vt 0.029249 0.936114
f 89/89/89 90/90/90 88/88/88
f 88/88/88 87/87/87 89/89/89
vt 0.175014 0.941955
vt 0.029249 0.941450
f 91/91/91 92/92/92 90/90/90
f 89/89/89 91/91/91 90/90/90
vt 0.175014 0.949257
vt 0.029249 0.949313
f 91/91/91 93/93/93 94/94/94
f 94/94/94 92/92/92 91/91/91
f 93/93/93 44/44/44 94/94/94
f 93/93/93 45/45/45 44/44/44
vt 0.173783 0.959878
f 50/50/50 95/95/95 52/52/52
f 95/95/95 54/54/54 52/52/52
f 95/95/95 56/56/56 54/54/54
f 95/95/95 57/57/57 56/56/56
f 95/95/95 60/60/60 57/57/57
f 95/95/95 61/61/61 60/60/60
f 95/95/95 65/65/65 64/64/64
f 95/95/95 64/64/64 61/61/61
f 95/95/95 70/70/70 68/68/68
f 68/68/68 65/65/65 95/95/95
f 95/95/95 70/70/70 68/68/68
f 95/95/95 72/72/72 70/70/70
f 95/95/95 73/73/73 72/72/72
f 95/95/95 75/75/75 73/73/73
f 95/95/95 78/78/78 75/75/75
f 95/95/95 79/79/79 78/78/78
f 95/95/95 81/81/81 79/79/79
f 95/95/95 83/83/83 81/81/81
f 95/95/95 85/85/85 83/83/83
f 95/95/95 87/87/87 85/85/85
f 95/95/95 89/89/89 87/87/87
f 95/95/95 91/91/91 89/89/89
f 95/95/95 93/93/93 91/91/91
f 95/95/95 45/45/45 93/93/93
f 95/95/95 46/46/46 45/45/45
f 95/95/95 48/48/48 46/46/46
f 95/95/95 50/50/50 48/48/48
# 137 faces, 95 coords texture

# End of File
